<svg width="70" height="70" viewBox="0 0 70 70" fill="none" xmlns="http://www.w3.org/2000/svg">
<path fill-rule="evenodd" clip-rule="evenodd" d="M35 70C54.33 70 70 54.33 70 35C70 15.67 54.33 0 35 0C15.67 0 0 15.67 0 35C0 54.33 15.67 70 35 70ZM38.5454 35C38.5454 37.3237 36.6831 39.2075 34.386 39.2075C32.0888 39.2075 30.2265 37.3237 30.2265 35C30.2265 32.6763 32.0888 30.7925 34.386 30.7925C36.6831 30.7925 38.5454 32.6763 38.5454 35ZM14.4647 32.3495C13.4536 33.2728 13.0217 34.1697 13.0217 35C13.0217 35.8303 13.4536 36.7272 14.4647 37.6505C15.4763 38.5742 16.993 39.4499 18.9481 40.205C19.715 40.5012 20.5419 40.776 21.4217 41.0264C22.0092 39.1 22.7806 37.0717 23.7246 35C22.7806 32.9283 22.0092 30.9 21.4217 28.9736C20.5419 29.224 19.715 29.4988 18.9481 29.795C16.993 30.5501 15.4763 31.4258 14.4647 32.3495ZM24.816 37.2619C24.2045 38.7189 23.688 40.1388 23.2695 41.4981C24.6426 41.8112 26.1166 42.0687 27.6701 42.2614C27.1624 41.463 26.6653 40.6389 26.1817 39.7915C25.6998 38.9472 25.2443 38.1028 24.816 37.2619ZM18.2602 41.9859C19.0858 42.3047 19.9712 42.5987 20.9087 42.8652C20.6684 43.8187 20.4777 44.7402 20.338 45.6219C19.9854 47.8481 19.9501 49.8721 20.3014 51.5334C20.6525 53.1941 21.418 54.6012 22.7534 55.3811C24.0887 56.161 25.6762 56.128 27.2735 55.6053C28.8714 55.0824 30.5865 54.0394 32.3162 52.6174C32.9996 52.0556 33.6915 51.4294 34.386 50.7441C35.0805 51.4294 35.7724 52.0556 36.4557 52.6174C38.1854 54.0394 39.9005 55.0824 41.4984 55.6053C43.0958 56.128 44.6832 56.161 46.0185 55.3811C47.3539 54.6012 48.1194 53.1941 48.4705 51.5334C48.8218 49.8721 48.7865 47.8481 48.4339 45.6219C48.2943 44.7402 48.1035 43.8187 47.8632 42.8653C48.8008 42.5987 49.6861 42.3047 50.5117 41.9859C52.5956 41.181 54.3473 40.1992 55.5945 39.0603C56.8423 37.9209 57.6594 36.5501 57.6594 35C57.6594 33.4499 56.8423 32.0791 55.5945 30.9397C54.3473 29.8008 52.5956 28.819 50.5117 28.0141C49.6861 27.6953 48.8008 27.4013 47.8632 27.1348C48.1035 26.1813 48.2942 25.2598 48.4339 24.3781C48.7865 22.1518 48.8218 20.1279 48.4705 18.4666C48.1194 16.8059 47.3539 15.3988 46.0185 14.6189C44.6832 13.839 43.0958 13.872 41.4984 14.3947C39.9005 14.9176 38.1854 15.9606 36.4557 17.3826C35.7724 17.9444 35.0805 18.5706 34.386 19.2559C33.6915 18.5706 32.9996 17.9444 32.3162 17.3826C30.5865 15.9606 28.8714 14.9176 27.2735 14.3947C25.6762 13.872 24.0887 13.839 22.7534 14.6189C21.418 15.3988 20.6525 16.8059 20.3014 18.4666C19.9501 20.1279 19.9854 22.1518 20.338 24.3781C20.4777 25.2598 20.6684 26.1813 20.9087 27.1348C19.9712 27.4013 19.0858 27.6953 18.2602 28.0141C16.1764 28.819 14.4246 29.8008 13.1774 30.9397C11.9297 32.0791 11.1126 33.4499 11.1126 35C11.1126 36.5501 11.9297 37.9209 13.1774 39.0603C14.4246 40.1992 16.1764 41.181 18.2602 41.9859ZM31.1109 51.1288C31.7504 50.603 32.4017 50.0136 33.0584 49.3652C31.7025 47.8862 30.3513 46.1951 29.0492 44.331C26.8093 44.1225 24.6922 43.7852 22.7531 43.3384C22.5255 44.2405 22.3458 45.1082 22.2151 45.9335C21.8838 48.0255 21.8751 49.7936 22.1603 51.1424C22.4457 52.4918 22.9971 53.3127 23.6997 53.7231C24.4023 54.1334 25.3809 54.206 26.6788 53.7813C27.9762 53.3567 29.4856 52.4651 31.1109 51.1288ZM37.6611 51.1288C37.0215 50.603 36.3703 50.0136 35.7135 49.3652C37.0694 47.8862 38.4207 46.1951 39.7227 44.331C41.9626 44.1225 44.0797 43.7852 46.0189 43.3384C46.2464 44.2405 46.4261 45.1082 46.5568 45.9335C46.8881 48.0255 46.8968 49.7936 46.6116 51.1424C46.3263 52.4918 45.7748 53.3127 45.0722 53.7231C44.3696 54.1334 43.3911 54.206 42.0931 53.7813C40.7958 53.3567 39.2864 52.4651 37.6611 51.1288ZM34.386 47.982C35.3409 46.9348 36.2988 45.7713 37.2408 44.506C36.3047 44.5514 35.3519 44.5748 34.386 44.5748C33.42 44.5748 32.4672 44.5514 31.5311 44.506C32.4732 45.7713 33.431 46.9348 34.386 47.982ZM34.386 42.6657C35.8506 42.6657 37.2792 42.6103 38.6588 42.5052C39.4418 41.3451 40.2066 40.1167 40.9417 38.8287C41.675 37.5439 42.3428 36.2629 42.9433 35C42.3428 33.7371 41.675 32.4561 40.9417 31.1713C40.2066 29.8833 39.4418 28.6549 38.6588 27.4948C37.2792 27.3897 35.8506 27.3343 34.386 27.3343C32.9214 27.3343 31.4927 27.3897 30.1131 27.4948C29.3301 28.6549 28.5653 29.8833 27.8302 31.1713C27.0969 32.456 26.4291 33.7371 25.8286 35C26.4291 36.2629 27.0969 37.5439 27.8302 38.8287C28.5653 40.1167 29.3301 41.3451 30.1131 42.5052C31.4927 42.6103 32.9214 42.6657 34.386 42.6657ZM45.5025 41.4981C44.1294 41.8112 42.6553 42.0687 41.1019 42.2614C41.6095 41.4631 42.1066 40.6389 42.5903 39.7915C43.0722 38.9472 43.5276 38.1028 43.9559 37.2619C44.5674 38.7189 45.0839 40.1388 45.5025 41.4981ZM47.3503 41.0264C46.7627 39.1 45.9913 37.0717 45.0473 35C45.9913 32.9282 46.7627 30.9 47.3503 28.9736C48.23 29.224 49.0569 29.4988 49.8239 29.795C51.7789 30.5501 53.2957 31.4258 54.3072 32.3495C55.3183 33.2728 55.7503 34.1697 55.7503 35C55.7503 35.8303 55.3183 36.7272 54.3072 37.6505C53.2957 38.5742 51.7789 39.4499 49.8239 40.205C49.0569 40.5012 48.23 40.776 47.3503 41.0264ZM46.5568 24.0665C46.4261 24.8918 46.2464 25.7595 46.0189 26.6616C44.0797 26.2148 41.9626 25.8775 39.7227 25.669C38.4207 23.8049 37.0694 22.1138 35.7135 20.6348C36.3703 19.9864 37.0215 19.3969 37.6611 18.8712C39.2864 17.5349 40.7958 16.6433 42.0931 16.2187C43.3911 15.794 44.3696 15.8666 45.0722 16.2769C45.7748 16.6873 46.3263 17.5082 46.6116 18.8576C46.8968 20.2064 46.8881 21.9745 46.5568 24.0665ZM31.1109 18.8712C31.7504 19.3969 32.4017 19.9864 33.0584 20.6348C31.7025 22.1138 30.3513 23.8049 29.0492 25.669C26.8093 25.8775 24.6922 26.2148 22.7531 26.6616C22.5255 25.7595 22.3458 24.8918 22.2151 24.0665C21.8838 21.9745 21.8751 20.2064 22.1603 18.8576C22.4457 17.5082 22.9971 16.6873 23.6997 16.2769C24.4023 15.8666 25.3809 15.794 26.6788 16.2187C27.9762 16.6433 29.4856 17.5349 31.1109 18.8712ZM34.386 22.018C33.431 23.0652 32.4731 24.2287 31.5311 25.494C32.4672 25.4486 33.42 25.4252 34.386 25.4252C35.3519 25.4252 36.3047 25.4486 37.2408 25.494C36.2988 24.2287 35.3409 23.0652 34.386 22.018ZM23.2695 28.5019C24.6426 28.1888 26.1166 27.9313 27.6701 27.7386C27.1624 28.537 26.6653 29.3611 26.1817 30.2085C25.6998 31.0528 25.2443 31.8972 24.816 32.7381C24.2045 31.2811 23.688 29.8612 23.2695 28.5019ZM43.9559 32.7381C44.5674 31.2811 45.0839 29.8612 45.5025 28.5019C44.1294 28.1888 42.6553 27.9313 41.1019 27.7386C41.6095 28.537 42.1066 29.3611 42.5903 30.2085C43.0722 31.0528 43.5276 31.8972 43.9559 32.7381ZM67.0526 35C67.0526 39.3461 66.1877 43.4901 64.6205 47.2694L62.5785 46.4226L60.5366 45.5759C61.8851 42.324 62.6316 38.7548 62.6316 35C62.6316 31.2452 61.8851 27.676 60.5366 24.4241L62.5785 23.5774L64.6205 22.7306C66.1877 26.5099 67.0526 30.6539 67.0526 35ZM46.4226 62.5785L47.2694 64.6205C43.4901 66.1877 39.3461 67.0526 35 67.0526C30.6539 67.0526 26.5099 66.1877 22.7306 64.6205L23.5774 62.5785L24.4241 60.5366C27.676 61.8851 31.2452 62.6316 35 62.6316C38.7548 62.6316 42.324 61.8851 45.5759 60.5366L46.4226 62.5785ZM2.94737 35C2.94737 39.3461 3.81235 43.4901 5.37954 47.2694L7.42146 46.4226L9.46338 45.5759C8.11489 42.324 7.36842 38.7548 7.36842 35C7.36842 31.2452 8.1149 27.676 9.46338 24.4241L7.42146 23.5774L5.37954 22.7306C3.81235 26.5099 2.94737 30.6539 2.94737 35ZM23.5774 7.42146L22.7306 5.37954C26.5099 3.81235 30.6539 2.94737 35 2.94737C39.3461 2.94737 43.4901 3.81235 47.2694 5.37954L46.4226 7.42146L45.5759 9.46338C42.324 8.1149 38.7548 7.36842 35 7.36842C31.2452 7.36842 27.676 8.11489 24.4241 9.46338L23.5774 7.42146Z" fill="white"/>
</svg>
