<svg width="257" height="70" viewBox="0 0 257 70" fill="none" xmlns="http://www.w3.org/2000/svg">
<path fill-rule="evenodd" clip-rule="evenodd" d="M70 35C70 54.33 54.33 70 35 70C15.67 70 0 54.33 0 35C0 15.67 15.67 0 35 0C54.33 0 70 15.67 70 35ZM34.386 39.2075C36.6831 39.2075 38.5454 37.3237 38.5454 35C38.5454 32.6763 36.6831 30.7925 34.386 30.7925C32.0888 30.7925 30.2265 32.6763 30.2265 35C30.2265 37.3237 32.0888 39.2075 34.386 39.2075ZM13.0217 35C13.0217 34.1697 13.4536 33.2728 14.4647 32.3495C15.4763 31.4258 16.993 30.5501 18.9481 29.795C19.715 29.4988 20.5419 29.224 21.4217 28.9736C22.0092 30.9 22.7806 32.9283 23.7246 35C22.7806 37.0718 22.0092 39.1 21.4217 41.0264C20.5419 40.776 19.715 40.5012 18.9481 40.205C16.993 39.4499 15.4763 38.5742 14.4647 37.6505C13.4536 36.7272 13.0217 35.8303 13.0217 35ZM23.2695 41.4981C23.688 40.1388 24.2045 38.7189 24.816 37.2619C25.2443 38.1028 25.6998 38.9472 26.1817 39.7915C26.6653 40.6389 27.1624 41.463 27.6701 42.2614C26.1166 42.0686 24.6426 41.8112 23.2695 41.4981ZM20.9087 42.8652C19.9712 42.5987 19.0858 42.3047 18.2602 41.9859C16.1764 41.181 14.4246 40.1992 13.1774 39.0603C11.9297 37.9209 11.1126 36.5501 11.1126 35C11.1126 33.4499 11.9297 32.0791 13.1774 30.9397C14.4246 29.8008 16.1764 28.819 18.2602 28.0141C19.0858 27.6953 19.9712 27.4013 20.9087 27.1348C20.6684 26.1813 20.4777 25.2598 20.338 24.3781C19.9854 22.1518 19.9501 20.1279 20.3014 18.4666C20.6525 16.8059 21.418 15.3988 22.7534 14.6189C24.0887 13.839 25.6762 13.872 27.2735 14.3947C28.8714 14.9176 30.5865 15.9606 32.3162 17.3826C32.9996 17.9444 33.6915 18.5706 34.386 19.2559C35.0805 18.5706 35.7724 17.9444 36.4557 17.3826C38.1854 15.9606 39.9005 14.9176 41.4984 14.3947C43.0958 13.872 44.6832 13.839 46.0185 14.6189C47.3539 15.3988 48.1194 16.8059 48.4705 18.4666C48.8218 20.1279 48.7865 22.1518 48.4339 24.3781C48.2942 25.2598 48.1035 26.1813 47.8633 27.1348C48.8008 27.4013 49.6861 27.6953 50.5117 28.0141C52.5956 28.819 54.3473 29.8008 55.5945 30.9397C56.8423 32.0791 57.6594 33.4499 57.6594 35C57.6594 36.5501 56.8423 37.9209 55.5945 39.0603C54.3473 40.1992 52.5956 41.181 50.5117 41.9859C49.6861 42.3047 48.8008 42.5987 47.8633 42.8652C48.1035 43.8187 48.2943 44.7402 48.4339 45.6219C48.7865 47.8481 48.8218 49.8721 48.4705 51.5334C48.1194 53.1941 47.3539 54.6012 46.0185 55.3811C44.6832 56.161 43.0958 56.128 41.4984 55.6053C39.9005 55.0824 38.1854 54.0394 36.4557 52.6174C35.7724 52.0556 35.0805 51.4294 34.386 50.7441C33.6915 51.4294 32.9996 52.0556 32.3162 52.6174C30.5865 54.0394 28.8714 55.0824 27.2735 55.6053C25.6762 56.128 24.0887 56.161 22.7534 55.3811C21.418 54.6012 20.6525 53.1941 20.3014 51.5334C19.9501 49.8721 19.9854 47.8481 20.338 45.6219C20.4777 44.7402 20.6684 43.8187 20.9087 42.8652ZM33.0584 49.3652C32.4017 50.0136 31.7504 50.6031 31.1109 51.1288C29.4856 52.4651 27.9762 53.3567 26.6788 53.7813C25.3809 54.206 24.4023 54.1334 23.6997 53.7231C22.9971 53.3127 22.4457 52.4918 22.1603 51.1424C21.8751 49.7936 21.8838 48.0255 22.2151 45.9335C22.3458 45.1082 22.5255 44.2405 22.7531 43.3384C24.6922 43.7852 26.8093 44.1225 29.0492 44.331C30.3513 46.1951 31.7025 47.8862 33.0584 49.3652ZM35.7135 49.3652C36.3703 50.0136 37.0215 50.6031 37.6611 51.1288C39.2864 52.4651 40.7958 53.3567 42.0931 53.7813C43.3911 54.206 44.3696 54.1334 45.0722 53.7231C45.7748 53.3127 46.3263 52.4918 46.6116 51.1424C46.8968 49.7936 46.8881 48.0255 46.5568 45.9335C46.4261 45.1082 46.2464 44.2405 46.0189 43.3384C44.0797 43.7852 41.9626 44.1225 39.7227 44.331C38.4207 46.1951 37.0694 47.8862 35.7135 49.3652ZM37.2408 44.506C36.2988 45.7713 35.3409 46.9348 34.386 47.982C33.431 46.9348 32.4732 45.7713 31.5311 44.506C32.4672 44.5514 33.42 44.5748 34.386 44.5748C35.3519 44.5748 36.3047 44.5514 37.2408 44.506ZM38.6588 42.5052C37.2792 42.6103 35.8506 42.6657 34.386 42.6657C32.9214 42.6657 31.4927 42.6103 30.1131 42.5052C29.3301 41.3451 28.5653 40.1167 27.8302 38.8287C27.0969 37.5439 26.4291 36.2629 25.8286 35C26.4291 33.7371 27.0969 32.456 27.8302 31.1713C28.5653 29.8833 29.3301 28.6549 30.1131 27.4948C31.4927 27.3897 32.9214 27.3343 34.386 27.3343C35.8506 27.3343 37.2792 27.3897 38.6588 27.4948C39.4418 28.6549 40.2066 29.8833 40.9417 31.1713C41.675 32.4561 42.3428 33.7371 42.9433 35C42.3428 36.2629 41.675 37.5439 40.9417 38.8287C40.2066 40.1167 39.4418 41.3451 38.6588 42.5052ZM41.1019 42.2614C42.6553 42.0687 44.1294 41.8112 45.5025 41.4981C45.0839 40.1388 44.5674 38.7189 43.9559 37.2619C43.5276 38.1028 43.0722 38.9472 42.5903 39.7915C42.1066 40.6389 41.6095 41.4631 41.1019 42.2614ZM45.0473 35C45.9913 37.0718 46.7627 39.1 47.3503 41.0264C48.23 40.776 49.0569 40.5012 49.8239 40.205C51.7789 39.4499 53.2957 38.5742 54.3072 37.6505C55.3183 36.7272 55.7503 35.8303 55.7503 35C55.7503 34.1697 55.3183 33.2728 54.3072 32.3495C53.2957 31.4258 51.7789 30.5501 49.8239 29.795C49.0569 29.4988 48.23 29.224 47.3503 28.9736C46.7627 30.9 45.9913 32.9282 45.0473 35ZM46.0189 26.6616C46.2464 25.7595 46.4261 24.8918 46.5568 24.0665C46.8881 21.9745 46.8968 20.2064 46.6116 18.8576C46.3263 17.5082 45.7748 16.6873 45.0722 16.2769C44.3696 15.8666 43.3911 15.794 42.0931 16.2187C40.7958 16.6433 39.2864 17.5349 37.6611 18.8712C37.0215 19.3969 36.3703 19.9864 35.7135 20.6348C37.0694 22.1138 38.4207 23.8049 39.7227 25.669C41.9626 25.8775 44.0797 26.2148 46.0189 26.6616ZM33.0584 20.6348C32.4017 19.9864 31.7504 19.3969 31.1109 18.8712C29.4856 17.5349 27.9762 16.6433 26.6788 16.2187C25.3809 15.794 24.4023 15.8666 23.6997 16.2769C22.9971 16.6873 22.4457 17.5082 22.1603 18.8576C21.8751 20.2064 21.8838 21.9745 22.2151 24.0665C22.3458 24.8918 22.5255 25.7595 22.7531 26.6616C24.6922 26.2148 26.8093 25.8775 29.0492 25.669C30.3513 23.8049 31.7025 22.1138 33.0584 20.6348ZM31.5311 25.494C32.4731 24.2287 33.431 23.0652 34.386 22.018C35.3409 23.0652 36.2988 24.2287 37.2408 25.494C36.3047 25.4486 35.3519 25.4252 34.386 25.4252C33.42 25.4252 32.4672 25.4486 31.5311 25.494ZM27.6701 27.7386C26.1166 27.9313 24.6426 28.1888 23.2695 28.5019C23.688 29.8612 24.2045 31.2811 24.816 32.7381C25.2443 31.8972 25.6998 31.0528 26.1817 30.2085C26.6653 29.3611 27.1624 28.537 27.6701 27.7386ZM45.5025 28.5019C45.0839 29.8612 44.5674 31.2811 43.9559 32.7381C43.5276 31.8972 43.0722 31.0528 42.5903 30.2085C42.1066 29.3611 41.6095 28.537 41.1019 27.7386C42.6553 27.9313 44.1294 28.1888 45.5025 28.5019ZM64.6205 47.2694C66.1877 43.4901 67.0526 39.3461 67.0526 35C67.0526 30.6539 66.1877 26.5099 64.6205 22.7306L62.5785 23.5774L60.5366 24.4241C61.8851 27.676 62.6316 31.2452 62.6316 35C62.6316 38.7548 61.8851 42.324 60.5366 45.5759L62.5785 46.4226L64.6205 47.2694ZM47.2694 64.6205L46.4226 62.5785L45.5759 60.5366C42.324 61.8851 38.7548 62.6316 35 62.6316C31.2452 62.6316 27.676 61.8851 24.4241 60.5366L23.5774 62.5785L22.7306 64.6205C26.5099 66.1877 30.6539 67.0526 35 67.0526C39.3461 67.0526 43.4901 66.1877 47.2694 64.6205ZM5.37954 47.2694C3.81235 43.4901 2.94737 39.3461 2.94737 35C2.94737 30.6539 3.81235 26.5099 5.37954 22.7306L7.42146 23.5774L9.46338 24.4241C8.11489 27.676 7.36842 31.2452 7.36842 35C7.36842 38.7548 8.11489 42.324 9.46338 45.5759L7.42146 46.4226L5.37954 47.2694ZM22.7306 5.37954L23.5774 7.42146L24.4241 9.46338C27.676 8.11489 31.2452 7.36842 35 7.36842C38.7548 7.36842 42.324 8.11489 45.5759 9.46338L46.4226 7.42146L47.2694 5.37954C43.4901 3.81235 39.3461 2.94737 35 2.94737C30.6539 2.94737 26.5099 3.81235 22.7306 5.37954ZM159.467 51.2779C160.333 52.426 161.772 53 163.783 53C165.794 53 167.728 52.3019 169.584 50.9056C168.656 49.4162 168.192 47.1667 168.192 44.1569C168.192 42.9778 168.78 39.301 169.956 33.1263C171.162 26.9207 171.766 23.3369 171.766 22.375C171.766 19.4894 170.574 18.0465 168.192 18.0465C165.686 18.0465 163.35 18.574 161.184 19.629C159.049 20.684 157.208 22.1268 155.661 23.9574C152.814 27.3706 150.587 31.4508 148.978 36.1981H148.421C147.895 30.4269 147.028 26.0363 145.822 23.0266C145.296 21.6924 144.615 20.6529 143.78 19.9082C142.975 19.1636 142.124 18.6671 141.227 18.4189C140.361 18.1396 139.293 18 138.025 18C135.147 18 131.96 19.1325 128.464 21.3976L130.924 26.3777C128.974 37.1755 128 43.738 128 46.0652C128 48.3613 128.433 50.0988 129.299 51.2779C130.166 52.426 131.604 53 133.615 53C135.627 53 137.56 52.3019 139.417 50.9056C138.489 49.4162 138.025 47.3063 138.025 44.5758C138.025 41.8453 138.783 37.1445 140.299 30.4734H141.041C141.536 38.5718 142.356 44.0638 143.501 46.9495C144.089 48.3768 144.677 49.3852 145.265 49.9747C145.884 50.5332 146.595 50.8125 147.4 50.8125C149.38 50.8125 151.128 50.0988 152.644 48.6715C152.923 45.91 153.681 42.8072 154.918 39.363C156.156 35.9189 157.718 32.9557 159.606 30.4734H160.348C158.894 38.6339 158.167 43.8466 158.167 46.1117C158.167 48.3768 158.6 50.0988 159.467 51.2779ZM102.409 40.6197L104.033 45.3205C105.054 48.2682 106.199 50.285 107.467 51.371C108.736 52.426 110.422 52.9535 112.526 52.9535C113.609 52.9535 114.816 52.6897 116.146 52.1622C117.508 51.6658 118.513 51.0762 119.163 50.3936C117.864 49.68 116.549 48.2371 115.218 46.0652C113.919 43.8932 112.743 41.3023 111.691 38.2926C113.671 37.1135 115.172 35.5931 116.193 33.7314C117.214 31.8387 117.724 29.8839 117.724 27.867C117.724 25.1676 116.889 22.8559 115.218 20.9322C113.547 19.0084 111.289 18.0465 108.442 18.0465C106.586 18.0465 104.497 18.512 102.177 19.4428C100.97 18.512 99.2526 18.0465 97.0248 18.0465C94.1164 18.0465 90.9295 19.1636 87.4641 21.3976L89.9239 26.3777C87.9746 37.1755 87 43.738 87 46.0652C87 48.3613 87.4332 50.0988 88.2995 51.2779C89.1659 52.426 90.6046 53 92.6158 53C94.6269 53 96.5607 52.3019 98.4172 50.9056C97.489 49.4162 97.0248 47.1667 97.0248 44.1569C97.0248 43.2881 97.195 41.8608 97.5354 39.875C99.1752 40.3715 100.8 40.6197 102.409 40.6197ZM105.332 32.8936C103.971 34.1658 102.053 34.8019 99.5775 34.8019C99.0824 34.8019 98.7266 34.7863 98.51 34.7553C98.7575 33.7314 99.3764 30.2562 100.366 24.3298C101.171 24.1126 101.975 24.004 102.78 24.004C104.265 24.004 105.41 24.4384 106.214 25.3072C107.019 26.176 107.421 27.3395 107.421 28.7979C107.421 30.2562 106.725 31.6215 105.332 32.8936ZM183.05 44.2035C183.05 42.4348 183.467 39.3165 184.303 34.8484C185.138 30.3803 185.649 27.5567 185.834 26.3777L183.375 21.3976C187.304 19.1636 190.646 18.0465 193.399 18.0465C194.761 18.0465 195.782 18.512 196.463 19.4428C199.031 18.543 201.398 18.0931 203.564 18.0931C207.586 18.0931 210.711 19.4118 212.939 22.0492C215.166 24.6556 216.28 27.9136 216.28 31.8231C216.28 36.9738 214.393 41.7057 210.618 46.0186C208.793 48.0975 206.379 49.773 203.378 51.0452C200.408 52.3174 197.221 52.9535 193.817 52.9535C190.414 52.9535 187.768 52.2088 185.881 50.7194C183.993 49.199 183.05 47.027 183.05 44.2035ZM192.889 45.9721C193.539 46.0962 194.266 46.1582 195.07 46.1582C198.443 46.1582 201.073 44.9481 202.96 42.5279C204.848 40.0767 205.791 37.0669 205.791 33.4987C205.791 30.613 205.142 28.3169 203.842 26.6104C202.542 24.9038 200.671 24.0505 198.226 24.0505C197.855 24.0505 197.236 24.1126 196.37 24.2367C196.153 25.8191 195.581 29.3564 194.653 34.8484C193.755 40.3094 193.167 44.0173 192.889 45.9721ZM227.343 51.2779C228.21 52.426 229.633 53 231.613 53C233.593 53 235.496 52.3329 237.322 50.9987C239.209 52.3019 241.7 52.9535 244.794 52.9535C247.919 52.9535 250.734 52.0536 253.241 50.254C255.747 48.4543 257 46.0341 257 42.9933C257 38.3081 254.525 35.531 249.574 34.6622C254.432 32.6764 256.861 29.4805 256.861 25.0745C256.861 22.406 255.963 20.5288 254.169 19.4428C252.653 18.512 250.889 18.0465 248.878 18.0465C245.815 18.0465 242.69 18.9619 239.503 20.7926C239.132 18.9309 237.987 18 236.068 18C233.191 18 230.004 19.1325 226.508 21.3976L228.968 26.3777C227.018 37.1755 226.044 43.738 226.044 46.0652C226.044 48.3613 226.477 50.0988 227.343 51.2779ZM244.979 38.758C245.846 39.4406 246.279 40.5111 246.279 41.9694C246.279 43.3967 245.768 44.4982 244.747 45.2739C243.757 46.0496 242.442 46.4375 240.802 46.4375C239.163 46.4375 237.585 46.0807 236.068 45.367C236.068 43.5053 236.316 41.2558 236.811 38.6183C238.575 38.0288 240.168 37.734 241.591 37.734C243.015 37.734 244.144 38.0754 244.979 38.758ZM239.364 24.8883C240.756 24.4229 242.056 24.1902 243.262 24.1902C245.676 24.1902 246.882 25.3537 246.882 27.6809C246.882 29.6977 245.985 31.2491 244.19 32.3351C242.396 33.3901 240.215 34.0106 237.646 34.1968C238.606 29.2012 239.178 26.0984 239.364 24.8883Z" fill="white"/>
</svg>
